<svg width="306" height="33" viewBox="0 0 306 33" fill="none" xmlns="http://www.w3.org/2000/svg">
<mask id="mask0_732_374" style="mask-type:luminance" maskUnits="userSpaceOnUse" x="0" y="0" width="306" height="33">
<path d="M305.3 0H0V32.4H305.3V0Z" fill="white"/>
</mask>
<g mask="url(#mask0_732_374)">
<path d="M6.3 26.1006H24.8L24.1 26.8006H5.6L6.3 26.1006Z" fill="#D22827"/>
<path d="M7.8 24.6006H26.2L25.6 25.3006H7.1L7.8 24.6006Z" fill="#D22827"/>
<path d="M9.2 23.2002H27.7L27 23.8002H8.6L9.2 23.2002Z" fill="#D22827"/>
<path d="M10.7 21.7002H29.2L28.5 22.4002H10L10.7 21.7002Z" fill="#D22827"/>
<path d="M12.2 20.2002H30.7L30 20.9002H11.5L12.2 20.2002Z" fill="#D22827"/>
<path d="M13.6 18.8008H32.1L31.5 19.4008H13L13.6 18.8008Z" fill="#DEDEE2"/>
<path d="M15.1 17.3008H33.6L32.9 18.0008H14.4L15.1 17.3008Z" fill="#DEDEE2"/>
<path d="M16.6 15.8008H35.1L34.4 16.5008H15.9L16.6 15.8008Z" fill="#DEDEE2"/>
<path d="M18 14.4004H36.6L35.9 15.0004H17.4L18 14.4004Z" fill="#DEDEE2"/>
<path d="M19.5 12.9004H38L37.4 13.6004H18.8L19.5 12.9004Z" fill="#DEDEE2"/>
<path d="M21 11.4004H39.5L38.8 12.1004H20.3L21 11.4004Z" fill="#2E3083"/>
<path d="M22.4 10.001H41L40.3 10.601H21.8L22.4 10.001Z" fill="#2E3083"/>
<path d="M23.9 8.50098H42.5L41.8 9.20098H23.2L23.9 8.50098Z" fill="#2E3083"/>
<path d="M25.4 7.00098H43.9L43.3 7.70098H24.7L25.4 7.00098Z" fill="#2E3083"/>
<path d="M45.4 5.60059L44.7 6.20059H26.2L26.8 5.60059H45.4Z" fill="#2E3083"/>
<path d="M27 5.60059H45.6L66.8 26.8006H48.3L27 5.60059Z" fill="#2E3083"/>
<path d="M74.5 26.8002H70.8V5.7002H85.3V9.0002H74.5V14.5002H85V17.8002H74.5V26.8002Z" fill="#383838"/>
<path d="M104.9 26.8002H100.6L96 18.9002H92.3V26.8002H88.6V5.7002H97.9C100 5.7002 101.6 6.3002 102.9 7.5002C104.2 8.7002 104.8 10.3002 104.8 12.3002C104.8 14.1002 104.3 15.5002 103.3 16.6002C102.3 17.7002 101.1 18.3002 99.8 18.5002L104.9 26.8002ZM97.3 15.6002C98.4 15.6002 99.2 15.3002 99.9 14.7002C100.6 14.1002 100.9 13.3002 100.9 12.3002C100.9 11.3002 100.6 10.5002 99.9 9.9002C99.2 9.3002 98.4 9.0002 97.3 9.0002H92.2V15.7002H97.3V15.6002Z" fill="#383838"/>
<path d="M127.4 26.8002H123.2L121.6 22.8002H112L110.4 26.8002H106.2L114.5 5.7002H119.1L127.4 26.8002ZM120.6 19.5002L116.8 9.4002L113 19.5002H120.6Z" fill="#383838"/>
<path d="M148 26.8002H144.4L133.4 11.7002V26.8002H129.7V5.7002H133.5L144.3 20.3002V5.7002H148V26.8002Z" fill="#383838"/>
<path d="M162.7 27.2002C159.5 27.2002 156.9 26.2002 154.8 24.1002C152.7 22.1002 151.6 19.4002 151.6 16.2002C151.6 13.0002 152.7 10.4002 154.8 8.3002C156.9 6.3002 159.5 5.2002 162.7 5.2002C166.4 5.2002 169.2 6.8002 171.2 9.9002L168 11.5002C167.5 10.6002 166.7 9.9002 165.8 9.3002C164.9 8.7002 163.8 8.4002 162.7 8.4002C160.6 8.4002 158.9 9.1002 157.5 10.6002C156.1 12.0002 155.4 13.9002 155.4 16.1002C155.4 18.3002 156.1 20.1002 157.5 21.6002C158.9 23.0002 160.6 23.8002 162.7 23.8002C163.8 23.8002 164.9 23.5002 165.8 22.9002C166.7 22.3002 167.5 21.6002 168 20.7002L171.2 22.3002C169.1 25.6002 166.3 27.2002 162.7 27.2002Z" fill="#383838"/>
<path d="M188.6 26.8002H174.1V5.7002H188.6V9.0002H177.8V14.5002H188.3V17.8002H177.8V23.7002H188.6V26.8002Z" fill="#383838"/>
<path d="M195.2 26.8002H194.2V5.7002H201.5C203.4 5.7002 204.9 6.3002 206 7.4002C207.1 8.5002 207.7 10.0002 207.7 11.7002C207.7 13.4002 207.1 14.8002 206 15.9002C204.9 17.1002 203.4 17.6002 201.5 17.6002H195.2V26.8002ZM201.4 16.7002C202.9 16.7002 204.2 16.2002 205.1 15.3002C206 14.4002 206.5 13.2002 206.5 11.7002C206.5 10.2002 206.1 9.0002 205.1 8.0002C204.2 7.1002 202.9 6.6002 201.4 6.6002H195.1V16.7002H201.4Z" fill="#383838"/>
<path d="M225.5 26.8002H224.2L217.8 17.7002H212.7V26.8002H211.7V5.7002H219C220.8 5.7002 222.3 6.2002 223.5 7.3002C224.7 8.4002 225.3 9.8002 225.3 11.7002C225.3 13.6002 224.7 15.0002 223.5 16.1002C222.3 17.2002 220.8 17.7002 219.1 17.7002L225.5 26.8002ZM219 16.7002C220.5 16.7002 221.8 16.2002 222.7 15.3002C223.6 14.4002 224.1 13.1002 224.1 11.7002C224.1 10.3002 223.7 9.0002 222.7 8.0002C221.8 7.1002 220.5 6.6002 219 6.6002H212.7V16.7002H219Z" fill="#383838"/>
<path d="M239.4 27.2004C236.4 27.2004 234 26.2004 232.1 24.1004C230.3 22.0004 229.3 19.4004 229.3 16.3004C229.3 13.2004 230.2 10.6004 232.1 8.50039C233.9 6.40039 236.4 5.40039 239.4 5.40039C242.4 5.40039 244.8 6.40039 246.7 8.50039C248.5 10.6004 249.5 13.2004 249.5 16.3004C249.5 19.4004 248.6 22.0004 246.7 24.1004C244.8 26.1004 242.3 27.2004 239.4 27.2004ZM239.4 26.2004C242.1 26.2004 244.2 25.3004 245.9 23.4004C247.5 21.5004 248.4 19.1004 248.4 16.2004C248.4 13.3004 247.6 10.9004 245.9 9.00039C244.3 7.10039 242.1 6.20039 239.4 6.20039C236.7 6.20039 234.5 7.10039 232.9 9.00039C231.3 10.9004 230.5 13.3004 230.5 16.2004C230.5 19.1004 231.3 21.5004 232.9 23.4004C234.5 25.3004 236.7 26.2004 239.4 26.2004Z" fill="#383838"/>
<path d="M256.7 27.2002C254.4 27.2002 252.7 26.3002 251.4 24.4002L252.3 23.6002C253.5 25.3002 255 26.2002 256.8 26.2002C258.3 26.2002 259.6 25.7002 260.5 24.7002C261.4 23.7002 261.9 22.4002 261.9 20.9002V5.7002H262.9V21.0002C262.9 23.0002 262.3 24.5002 261.2 25.6002C259.8 26.6002 258.4 27.2002 256.7 27.2002Z" fill="#383838"/>
<path d="M281.2 26.8002H268.3V5.7002H281.2V6.6002H269.3V15.4002H281V16.3002H269.3V25.7002H281.2V26.8002Z" fill="#383838"/>
<path d="M292.5 26.8002H291.5V6.6002H284.4V5.7002H299.7V6.6002H292.5V26.8002Z" fill="#383838"/>
</g>
</svg>
