<svg width="306" height="33" viewBox="0 0 306 33" fill="none" xmlns="http://www.w3.org/2000/svg">
<g clip-path="url(#clip0_725_160)">
<mask id="mask0_725_160" style="mask-type:luminance" maskUnits="userSpaceOnUse" x="0" y="0" width="306" height="33">
<path d="M305.3 0H0V32.4H305.3V0Z" fill="white"/>
</mask>
<g mask="url(#mask0_725_160)">
<path d="M6.29998 26.1H24.8L24.1 26.8H5.59998L6.29998 26.1Z" fill="#D22827"/>
<path d="M7.79998 24.6H26.2L25.6 25.3H7.09998L7.79998 24.6Z" fill="#D22827"/>
<path d="M9.19998 23.2H27.7L27 23.8H8.59998L9.19998 23.2Z" fill="#D22827"/>
<path d="M10.7 21.7H29.2L28.5 22.4H10L10.7 21.7Z" fill="#D22827"/>
<path d="M12.2 20.2H30.7L30 20.9H11.5L12.2 20.2Z" fill="#D22827"/>
<path d="M13.6 18.8H32.1L31.5 19.4H13L13.6 18.8Z" fill="white"/>
<path d="M15.1 17.3H33.6L32.9 18H14.4L15.1 17.3Z" fill="white"/>
<path d="M16.6 15.8H35.1L34.4 16.5H15.9L16.6 15.8Z" fill="white"/>
<path d="M18 14.4H36.6L35.9 15H17.4L18 14.4Z" fill="white"/>
<path d="M19.5 12.9H38L37.4 13.6H18.8L19.5 12.9Z" fill="white"/>
<path d="M21 11.4H39.5L38.8 12.1H20.3L21 11.4Z" fill="#2E3083"/>
<path d="M22.4 9.99998H41L40.3 10.6H21.8L22.4 9.99998Z" fill="#2E3083"/>
<path d="M23.9 8.49998H42.5L41.7999 9.19998H23.2L23.9 8.49998Z" fill="#2E3083"/>
<path d="M25.4 6.99998H43.9L43.2999 7.69998H24.7L25.4 6.99998Z" fill="#2E3083"/>
<path d="M45.4 5.59999L44.7 6.19999H26.2L26.7999 5.59999H45.4Z" fill="#2E3083"/>
<path d="M27 5.59999H45.6L66.8 26.8H48.3L27 5.59999Z" fill="white"/>
<path d="M74.5 26.8H70.8V5.7H85.3V9H74.5V14.5H85V17.8H74.5V26.8Z" fill="white"/>
<path d="M104.9 26.8H100.6L96 18.9H92.3V26.8H88.6V5.7H97.9C100 5.7 101.6 6.3 102.9 7.5C104.2 8.7 104.8 10.3 104.8 12.3C104.8 14.1 104.3 15.5 103.3 16.6C102.3 17.7 101.1 18.3 99.8 18.5L104.9 26.8ZM97.3 15.6C98.4 15.6 99.2 15.3 99.9 14.7C100.6 14.1 100.9 13.3 100.9 12.3C100.9 11.3 100.6 10.5 99.9 9.9C99.2 9.3 98.4 9 97.3 9H92.2V15.7H97.3V15.6Z" fill="white"/>
<path d="M127.4 26.8H123.2L121.6 22.8H112L110.4 26.8H106.2L114.5 5.7H119.1L127.4 26.8ZM120.6 19.5L116.8 9.4L113 19.5H120.6Z" fill="white"/>
<path d="M148 26.8H144.4L133.4 11.7V26.8H129.7V5.7H133.5L144.3 20.3V5.7H148V26.8Z" fill="white"/>
<path d="M162.7 27.2C159.5 27.2 156.9 26.2 154.8 24.1C152.7 22.1 151.6 19.4 151.6 16.2C151.6 13 152.7 10.4 154.8 8.3C156.9 6.3 159.5 5.2 162.7 5.2C166.4 5.2 169.2 6.8 171.2 9.9L168 11.5C167.5 10.6 166.7 9.9 165.8 9.3C164.9 8.7 163.8 8.4 162.7 8.4C160.6 8.4 158.9 9.1 157.5 10.6C156.1 12 155.4 13.9 155.4 16.1C155.4 18.3 156.1 20.1 157.5 21.6C158.9 23 160.6 23.8 162.7 23.8C163.8 23.8 164.9 23.5 165.8 22.9C166.7 22.3 167.5 21.6 168 20.7L171.2 22.3C169.1 25.6 166.3 27.2 162.7 27.2Z" fill="white"/>
<path d="M188.6 26.8H174.1V5.7H188.6V9H177.8V14.5H188.3V17.8H177.8V23.7H188.6V26.8Z" fill="white"/>
<path d="M195.2 26.8H194.2V5.7H201.5C203.4 5.7 204.9 6.3 206 7.4C207.1 8.5 207.7 10 207.7 11.7C207.7 13.4 207.1 14.8 206 15.9C204.9 17.1 203.4 17.6 201.5 17.6H195.2V26.8ZM201.4 16.7C202.9 16.7 204.2 16.2 205.1 15.3C206 14.4 206.5 13.2 206.5 11.7C206.5 10.2 206.1 9 205.1 8C204.2 7.1 202.9 6.6 201.4 6.6H195.1V16.7H201.4Z" fill="white"/>
<path d="M225.5 26.8H224.2L217.8 17.7H212.7V26.8H211.7V5.7H219C220.8 5.7 222.3 6.2 223.5 7.3C224.7 8.4 225.3 9.8 225.3 11.7C225.3 13.6 224.7 15 223.5 16.1C222.3 17.2 220.8 17.7 219.1 17.7L225.5 26.8ZM219 16.7C220.5 16.7 221.8 16.2 222.7 15.3C223.6 14.4 224.1 13.1 224.1 11.7C224.1 10.3 223.7 9 222.7 8C221.8 7.1 220.5 6.6 219 6.6H212.7V16.7H219Z" fill="white"/>
<path d="M239.4 27.2C236.4 27.2 234 26.2 232.1 24.1C230.3 22 229.3 19.4 229.3 16.3C229.3 13.2 230.2 10.6 232.1 8.49999C233.9 6.39999 236.4 5.39999 239.4 5.39999C242.4 5.39999 244.8 6.39999 246.7 8.49999C248.5 10.6 249.5 13.2 249.5 16.3C249.5 19.4 248.6 22 246.7 24.1C244.8 26.1 242.3 27.2 239.4 27.2ZM239.4 26.2C242.1 26.2 244.2 25.3 245.9 23.4C247.5 21.5 248.4 19.1 248.4 16.2C248.4 13.3 247.6 10.9 245.9 8.99999C244.3 7.09999 242.1 6.19999 239.4 6.19999C236.7 6.19999 234.5 7.09999 232.9 8.99999C231.3 10.9 230.5 13.3 230.5 16.2C230.5 19.1 231.3 21.5 232.9 23.4C234.5 25.3 236.7 26.2 239.4 26.2Z" fill="white"/>
<path d="M256.7 27.2C254.4 27.2 252.7 26.3 251.4 24.4L252.3 23.6C253.5 25.3 255 26.2 256.8 26.2C258.3 26.2 259.6 25.7 260.5 24.7C261.4 23.7 261.9 22.4 261.9 20.9V5.7H262.9V21C262.9 23 262.3 24.5 261.2 25.6C259.8 26.6 258.4 27.2 256.7 27.2Z" fill="white"/>
<path d="M281.2 26.8H268.3V5.7H281.2V6.6H269.3V15.4H281V16.3H269.3V25.7H281.2V26.8Z" fill="white"/>
<path d="M292.5 26.8H291.5V6.6H284.4V5.7H299.7V6.6H292.5V26.8Z" fill="white"/>
</g>
</g>
<defs>
<clipPath id="clip0_725_160">
<rect width="305.3" height="32.4" fill="white"/>
</clipPath>
</defs>
</svg>
